# xmcd
# 
# Track frame offsets:
#     150
#     19792
#     43852
#     67935
#     88847
#     115865
#     134422
# 
# Disc length: 2380
# 
# Revision: 3
# Processed by: cddbd v1.5.2PL0 Copyright (c) Steve Scherf et al.
# Submitted via: fre:ac v1.1beta1pre5
# 
DISCID=5b094a07
DTITLE=Muddy Waters - Muddy "Mississippi" Waters Live
DYEAR=1997
DGENRE=Blues
TTITLE0=Mannish Boy
TTITLE1=She's Nineteen Years Old
TTITLE2=Nine Below Zero
TTITLE3=Streamline Woman
TTITLE4=Howling Wolf
TTITLE5=Baby Please Don't Go
TTITLE6=Deep Down In Florida
EXTD=
EXTT0=
EXTT1=
EXTT2=
EXTT3=
EXTT4=
EXTT5=
EXTT6=
PLAYORDER=
